<svg xmlns="http://www.w3.org/2000/svg" viewBox="0 0 1920 1080">
  <defs>
    <linearGradient id="bg" x1="0" y1="0" x2="0" y2="1">
      <stop offset="0%" stop-color="#0c2458"/>
      <stop offset="55%" stop-color="#071638"/>
      <stop offset="100%" stop-color="#020611"/>
    </linearGradient>
    <radialGradient id="nebulaA" cx="35%" cy="22%" r="38%">
      <stop offset="0%" stop-color="#4ed9ff" stop-opacity=".26"/>
      <stop offset="100%" stop-color="#4ed9ff" stop-opacity="0"/>
    </radialGradient>
    <radialGradient id="nebulaB" cx="72%" cy="34%" r="30%">
      <stop offset="0%" stop-color="#7b8dff" stop-opacity=".22"/>
      <stop offset="100%" stop-color="#7b8dff" stop-opacity="0"/>
    </radialGradient>
  </defs>
  <rect width="1920" height="1080" fill="url(#bg)"/>
  <rect width="1920" height="1080" fill="url(#nebulaA)"/>
  <rect width="1920" height="1080" fill="url(#nebulaB)"/>
  <g fill="#dff6ff" opacity=".85">
    <circle cx="102" cy="91" r="2"/><circle cx="283" cy="164" r="1.6"/><circle cx="481" cy="72" r="2.2"/><circle cx="651" cy="146" r="1.3"/>
    <circle cx="848" cy="104" r="1.8"/><circle cx="1040" cy="188" r="2.4"/><circle cx="1236" cy="133" r="1.5"/><circle cx="1417" cy="86" r="2.1"/>
    <circle cx="1594" cy="176" r="1.7"/><circle cx="1778" cy="124" r="2.1"/><circle cx="186" cy="318" r="1.4"/><circle cx="378" cy="262" r="2.1"/>
    <circle cx="572" cy="352" r="1.8"/><circle cx="769" cy="291" r="1.3"/><circle cx="964" cy="346" r="2.2"/><circle cx="1152" cy="278" r="1.5"/>
    <circle cx="1357" cy="333" r="2.3"/><circle cx="1532" cy="304" r="1.8"/><circle cx="1716" cy="371" r="1.4"/><circle cx="1832" cy="286" r="2"/>
    <circle cx="121" cy="514" r="1.5"/><circle cx="294" cy="448" r="2.1"/><circle cx="490" cy="522" r="1.8"/><circle cx="681" cy="470" r="2.2"/>
    <circle cx="878" cy="542" r="1.4"/><circle cx="1076" cy="482" r="2"/><circle cx="1269" cy="559" r="1.6"/><circle cx="1461" cy="448" r="1.9"/>
    <circle cx="1674" cy="533" r="2.2"/><circle cx="1808" cy="468" r="1.5"/><circle cx="94" cy="694" r="1.8"/><circle cx="265" cy="618" r="2"/>
    <circle cx="458" cy="702" r="1.4"/><circle cx="644" cy="638" r="2.1"/><circle cx="843" cy="720" r="1.8"/><circle cx="1039" cy="665" r="2.4"/>
    <circle cx="1234" cy="734" r="1.3"/><circle cx="1426" cy="674" r="2.1"/><circle cx="1622" cy="752" r="1.7"/><circle cx="1813" cy="691" r="2"/>
  </g>
</svg>
