<svg xmlns="http://www.w3.org/2000/svg" viewBox="0 0 1920 1080">
  <defs>
    <linearGradient id="bg" x1="0" y1="0" x2="0" y2="1">
      <stop offset="0%" stop-color="#0c2f21"/>
      <stop offset="55%" stop-color="#07170f"/>
      <stop offset="100%" stop-color="#020604"/>
    </linearGradient>
    <radialGradient id="nebulaA" cx="34%" cy="18%" r="30%">
      <stop offset="0%" stop-color="#70ffb1" stop-opacity=".22"/>
      <stop offset="100%" stop-color="#70ffb1" stop-opacity="0"/>
    </radialGradient>
    <radialGradient id="nebulaB" cx="73%" cy="37%" r="28%">
      <stop offset="0%" stop-color="#59ffd7" stop-opacity=".18"/>
      <stop offset="100%" stop-color="#59ffd7" stop-opacity="0"/>
    </radialGradient>
  </defs>
  <rect width="1920" height="1080" fill="url(#bg)"/>
  <rect width="1920" height="1080" fill="url(#nebulaA)"/>
  <rect width="1920" height="1080" fill="url(#nebulaB)"/>
  <g fill="#e7fff6" opacity=".88">
    <circle cx="110" cy="102" r="1.8"/><circle cx="301" cy="168" r="2.1"/><circle cx="494" cy="111" r="1.4"/><circle cx="689" cy="181" r="2.3"/>
    <circle cx="882" cy="124" r="1.7"/><circle cx="1078" cy="196" r="2.2"/><circle cx="1274" cy="140" r="1.5"/><circle cx="1470" cy="208" r="2"/>
    <circle cx="1663" cy="153" r="1.8"/><circle cx="1835" cy="221" r="2.1"/><circle cx="143" cy="314" r="1.5"/><circle cx="337" cy="261" r="2.1"/>
    <circle cx="533" cy="338" r="1.7"/><circle cx="728" cy="283" r="2.2"/><circle cx="926" cy="358" r="1.6"/><circle cx="1120" cy="301" r="2.4"/>
    <circle cx="1316" cy="379" r="1.5"/><circle cx="1510" cy="321" r="2.2"/><circle cx="1704" cy="394" r="1.8"/><circle cx="1838" cy="336" r="2.1"/>
    <circle cx="121" cy="498" r="1.6"/><circle cx="314" cy="561" r="2"/><circle cx="509" cy="507" r="1.4"/><circle cx="707" cy="577" r="2.3"/>
    <circle cx="899" cy="523" r="1.7"/><circle cx="1097" cy="596" r="2.2"/><circle cx="1288" cy="541" r="1.5"/><circle cx="1483" cy="611" r="2.1"/>
    <circle cx="1678" cy="554" r="1.8"/><circle cx="1834" cy="630" r="2.3"/><circle cx="137" cy="712" r="1.8"/><circle cx="336" cy="654" r="2.1"/>
    <circle cx="527" cy="728" r="1.5"/><circle cx="724" cy="671" r="2.2"/><circle cx="919" cy="748" r="1.6"/><circle cx="1113" cy="689" r="2.3"/>
    <circle cx="1308" cy="760" r="1.5"/><circle cx="1501" cy="704" r="2.1"/><circle cx="1695" cy="782" r="1.8"/><circle cx="1837" cy="720" r="2.2"/>
  </g>
</svg>
