<svg xmlns="http://www.w3.org/2000/svg" viewBox="0 0 1920 1080">
  <defs>
    <linearGradient id="bg" x1="0" y1="0" x2="0" y2="1">
      <stop offset="0%" stop-color="#211148"/>
      <stop offset="56%" stop-color="#100825"/>
      <stop offset="100%" stop-color="#04020b"/>
    </linearGradient>
    <radialGradient id="nebulaA" cx="30%" cy="24%" r="30%">
      <stop offset="0%" stop-color="#c375ff" stop-opacity=".24"/>
      <stop offset="100%" stop-color="#c375ff" stop-opacity="0"/>
    </radialGradient>
    <radialGradient id="nebulaB" cx="72%" cy="42%" r="26%">
      <stop offset="0%" stop-color="#6f9aff" stop-opacity=".18"/>
      <stop offset="100%" stop-color="#6f9aff" stop-opacity="0"/>
    </radialGradient>
  </defs>
  <rect width="1920" height="1080" fill="url(#bg)"/>
  <rect width="1920" height="1080" fill="url(#nebulaA)"/>
  <rect width="1920" height="1080" fill="url(#nebulaB)"/>
  <g fill="#f3e8ff" opacity=".88">
    <circle cx="90" cy="90" r="1.8"/><circle cx="287" cy="152" r="2.1"/><circle cx="486" cy="102" r="1.4"/><circle cx="673" cy="170" r="2.2"/>
    <circle cx="862" cy="116" r="1.7"/><circle cx="1058" cy="186" r="2.3"/><circle cx="1247" cy="125" r="1.5"/><circle cx="1440" cy="197" r="2"/>
    <circle cx="1642" cy="139" r="1.8"/><circle cx="1823" cy="208" r="2.1"/><circle cx="130" cy="312" r="1.6"/><circle cx="329" cy="261" r="2.2"/>
    <circle cx="516" cy="344" r="1.5"/><circle cx="718" cy="294" r="2.1"/><circle cx="905" cy="368" r="1.7"/><circle cx="1094" cy="311" r="2.4"/>
    <circle cx="1288" cy="380" r="1.4"/><circle cx="1479" cy="324" r="2.1"/><circle cx="1674" cy="391" r="1.8"/><circle cx="1840" cy="337" r="2.2"/>
    <circle cx="108" cy="486" r="1.5"/><circle cx="304" cy="557" r="2.2"/><circle cx="501" cy="503" r="1.7"/><circle cx="694" cy="573" r="2.1"/>
    <circle cx="886" cy="520" r="1.4"/><circle cx="1079" cy="594" r="2.3"/><circle cx="1276" cy="541" r="1.6"/><circle cx="1471" cy="608" r="2"/>
    <circle cx="1662" cy="556" r="1.7"/><circle cx="1835" cy="627" r="2.2"/><circle cx="132" cy="712" r="1.8"/><circle cx="330" cy="658" r="2"/>
    <circle cx="522" cy="730" r="1.4"/><circle cx="716" cy="672" r="2.2"/><circle cx="912" cy="749" r="1.6"/><circle cx="1110" cy="687" r="2.3"/>
    <circle cx="1302" cy="761" r="1.5"/><circle cx="1498" cy="709" r="2.1"/><circle cx="1691" cy="780" r="1.8"/><circle cx="1834" cy="723" r="2.2"/>
  </g>
</svg>
